<mxfile host="app.diagrams.net" agent="Mozilla/5.0 (Windows NT 10.0; Win64; x64) AppleWebKit/537.36 (KHTML, like Gecko) Chrome/134.0.0.0 Safari/537.36" version="26.2.8">
  <diagram name="第 1 页" id="Y9Zh68YjW0LExjwkYW3_">
    <mxGraphModel dx="838" dy="462" grid="1" gridSize="10" guides="1" tooltips="1" connect="1" arrows="1" fold="1" page="1" pageScale="1" pageWidth="827" pageHeight="1169" math="0" shadow="0">
      <root>
        <mxCell id="0" />
        <mxCell id="1" parent="0" />
        <mxCell id="BQdF3oTu2OWkkyK6r23T-1" value="" style="endArrow=classic;html=1;rounded=0;" edge="1" parent="1">
          <mxGeometry width="50" height="50" relative="1" as="geometry">
            <mxPoint x="200" y="320" as="sourcePoint" />
            <mxPoint x="270" y="380" as="targetPoint" />
            <Array as="points" />
          </mxGeometry>
        </mxCell>
        <mxCell id="BQdF3oTu2OWkkyK6r23T-3" value="" style="endArrow=classic;html=1;rounded=0;" edge="1" parent="1">
          <mxGeometry width="50" height="50" relative="1" as="geometry">
            <mxPoint x="200" y="360" as="sourcePoint" />
            <mxPoint x="270" y="380" as="targetPoint" />
          </mxGeometry>
        </mxCell>
        <mxCell id="BQdF3oTu2OWkkyK6r23T-5" value="" style="endArrow=classic;html=1;rounded=0;" edge="1" parent="1">
          <mxGeometry width="50" height="50" relative="1" as="geometry">
            <mxPoint x="200" y="440" as="sourcePoint" />
            <mxPoint x="270" y="380" as="targetPoint" />
          </mxGeometry>
        </mxCell>
        <mxCell id="BQdF3oTu2OWkkyK6r23T-6" value="" style="endArrow=classic;html=1;rounded=0;" edge="1" parent="1">
          <mxGeometry width="50" height="50" relative="1" as="geometry">
            <mxPoint x="200" y="400" as="sourcePoint" />
            <mxPoint x="270" y="380" as="targetPoint" />
          </mxGeometry>
        </mxCell>
        <mxCell id="BQdF3oTu2OWkkyK6r23T-10" value="&lt;div style=&quot;color: rgb(248, 248, 242); background-color: rgb(44, 31, 38); font-family: Consolas, &amp;quot;Courier New&amp;quot;, monospace; font-size: 14px; line-height: 19px; white-space: pre;&quot;&gt;&lt;span style=&quot;font-weight: bold;&quot;&gt;​Dispatcher​&lt;/span&gt;&lt;/div&gt;" style="ellipse;whiteSpace=wrap;html=1;aspect=fixed;" vertex="1" parent="1">
          <mxGeometry x="270" y="340" width="80" height="80" as="geometry" />
        </mxCell>
        <mxCell id="BQdF3oTu2OWkkyK6r23T-11" value="" style="endArrow=classic;html=1;rounded=0;" edge="1" parent="1">
          <mxGeometry width="50" height="50" relative="1" as="geometry">
            <mxPoint x="350" y="380" as="sourcePoint" />
            <mxPoint x="430" y="340" as="targetPoint" />
          </mxGeometry>
        </mxCell>
        <mxCell id="BQdF3oTu2OWkkyK6r23T-12" value="" style="endArrow=classic;html=1;rounded=0;" edge="1" parent="1">
          <mxGeometry width="50" height="50" relative="1" as="geometry">
            <mxPoint x="350" y="380" as="sourcePoint" />
            <mxPoint x="430" y="380" as="targetPoint" />
          </mxGeometry>
        </mxCell>
        <mxCell id="BQdF3oTu2OWkkyK6r23T-13" value="" style="endArrow=classic;html=1;rounded=0;" edge="1" parent="1">
          <mxGeometry width="50" height="50" relative="1" as="geometry">
            <mxPoint x="350" y="380" as="sourcePoint" />
            <mxPoint x="430" y="420" as="targetPoint" />
          </mxGeometry>
        </mxCell>
        <mxCell id="BQdF3oTu2OWkkyK6r23T-19" value="&lt;font style=&quot;font-size: 18px;&quot;&gt;Requests&lt;/font&gt;" style="text;strokeColor=none;fillColor=none;align=left;verticalAlign=middle;spacingLeft=4;spacingRight=4;overflow=hidden;points=[[0,0.5],[1,0.5]];portConstraint=eastwest;rotatable=0;whiteSpace=wrap;html=1;" vertex="1" parent="1">
          <mxGeometry x="110" y="360" width="90" height="30" as="geometry" />
        </mxCell>
        <mxCell id="BQdF3oTu2OWkkyK6r23T-20" value="module1" style="whiteSpace=wrap;html=1;" vertex="1" parent="1">
          <mxGeometry x="430" y="320" width="50" height="30" as="geometry" />
        </mxCell>
        <mxCell id="BQdF3oTu2OWkkyK6r23T-22" value="" style="edgeStyle=orthogonalEdgeStyle;rounded=0;orthogonalLoop=1;jettySize=auto;html=1;exitX=1;exitY=0.5;exitDx=0;exitDy=0;" edge="1" parent="1" target="BQdF3oTu2OWkkyK6r23T-23" source="BQdF3oTu2OWkkyK6r23T-20">
          <mxGeometry relative="1" as="geometry">
            <mxPoint x="490" y="330" as="sourcePoint" />
          </mxGeometry>
        </mxCell>
        <mxCell id="BQdF3oTu2OWkkyK6r23T-23" value="module2" style="whiteSpace=wrap;html=1;" vertex="1" parent="1">
          <mxGeometry x="500" y="320" width="50" height="30" as="geometry" />
        </mxCell>
        <mxCell id="BQdF3oTu2OWkkyK6r23T-24" value="" style="edgeStyle=orthogonalEdgeStyle;rounded=0;orthogonalLoop=1;jettySize=auto;html=1;" edge="1" parent="1" target="BQdF3oTu2OWkkyK6r23T-25">
          <mxGeometry relative="1" as="geometry">
            <mxPoint x="550" y="335" as="sourcePoint" />
          </mxGeometry>
        </mxCell>
        <mxCell id="BQdF3oTu2OWkkyK6r23T-25" value="module3" style="whiteSpace=wrap;html=1;" vertex="1" parent="1">
          <mxGeometry x="570" y="320" width="50" height="30" as="geometry" />
        </mxCell>
        <mxCell id="BQdF3oTu2OWkkyK6r23T-31" value="module1" style="whiteSpace=wrap;html=1;" vertex="1" parent="1">
          <mxGeometry x="430" y="365" width="50" height="30" as="geometry" />
        </mxCell>
        <mxCell id="BQdF3oTu2OWkkyK6r23T-32" value="" style="edgeStyle=orthogonalEdgeStyle;rounded=0;orthogonalLoop=1;jettySize=auto;html=1;exitX=1;exitY=0.5;exitDx=0;exitDy=0;" edge="1" parent="1" source="BQdF3oTu2OWkkyK6r23T-31" target="BQdF3oTu2OWkkyK6r23T-33">
          <mxGeometry relative="1" as="geometry">
            <mxPoint x="490" y="375" as="sourcePoint" />
          </mxGeometry>
        </mxCell>
        <mxCell id="BQdF3oTu2OWkkyK6r23T-33" value="module2" style="whiteSpace=wrap;html=1;" vertex="1" parent="1">
          <mxGeometry x="500" y="365" width="50" height="30" as="geometry" />
        </mxCell>
        <mxCell id="BQdF3oTu2OWkkyK6r23T-34" value="" style="edgeStyle=orthogonalEdgeStyle;rounded=0;orthogonalLoop=1;jettySize=auto;html=1;" edge="1" parent="1" target="BQdF3oTu2OWkkyK6r23T-35">
          <mxGeometry relative="1" as="geometry">
            <mxPoint x="550" y="380" as="sourcePoint" />
          </mxGeometry>
        </mxCell>
        <mxCell id="BQdF3oTu2OWkkyK6r23T-35" value="module3" style="whiteSpace=wrap;html=1;" vertex="1" parent="1">
          <mxGeometry x="570" y="365" width="50" height="30" as="geometry" />
        </mxCell>
        <mxCell id="BQdF3oTu2OWkkyK6r23T-36" value="module1" style="whiteSpace=wrap;html=1;" vertex="1" parent="1">
          <mxGeometry x="430" y="410" width="50" height="30" as="geometry" />
        </mxCell>
        <mxCell id="BQdF3oTu2OWkkyK6r23T-37" value="" style="edgeStyle=orthogonalEdgeStyle;rounded=0;orthogonalLoop=1;jettySize=auto;html=1;exitX=1;exitY=0.5;exitDx=0;exitDy=0;" edge="1" parent="1" source="BQdF3oTu2OWkkyK6r23T-36" target="BQdF3oTu2OWkkyK6r23T-38">
          <mxGeometry relative="1" as="geometry">
            <mxPoint x="490" y="420" as="sourcePoint" />
          </mxGeometry>
        </mxCell>
        <mxCell id="BQdF3oTu2OWkkyK6r23T-38" value="module2" style="whiteSpace=wrap;html=1;" vertex="1" parent="1">
          <mxGeometry x="500" y="410" width="50" height="30" as="geometry" />
        </mxCell>
        <mxCell id="BQdF3oTu2OWkkyK6r23T-39" value="" style="edgeStyle=orthogonalEdgeStyle;rounded=0;orthogonalLoop=1;jettySize=auto;html=1;" edge="1" parent="1" target="BQdF3oTu2OWkkyK6r23T-40">
          <mxGeometry relative="1" as="geometry">
            <mxPoint x="550" y="425" as="sourcePoint" />
          </mxGeometry>
        </mxCell>
        <mxCell id="BQdF3oTu2OWkkyK6r23T-40" value="module3" style="whiteSpace=wrap;html=1;" vertex="1" parent="1">
          <mxGeometry x="570" y="410" width="50" height="30" as="geometry" />
        </mxCell>
        <mxCell id="BQdF3oTu2OWkkyK6r23T-41" value="" style="endArrow=classic;html=1;rounded=0;" edge="1" parent="1">
          <mxGeometry width="50" height="50" relative="1" as="geometry">
            <mxPoint x="620" y="330" as="sourcePoint" />
            <mxPoint x="670" y="310" as="targetPoint" />
          </mxGeometry>
        </mxCell>
        <mxCell id="BQdF3oTu2OWkkyK6r23T-42" value="" style="endArrow=classic;html=1;rounded=0;" edge="1" parent="1">
          <mxGeometry width="50" height="50" relative="1" as="geometry">
            <mxPoint x="620" y="330" as="sourcePoint" />
            <mxPoint x="670" y="350" as="targetPoint" />
          </mxGeometry>
        </mxCell>
        <mxCell id="BQdF3oTu2OWkkyK6r23T-43" value="" style="endArrow=classic;html=1;rounded=0;" edge="1" parent="1">
          <mxGeometry width="50" height="50" relative="1" as="geometry">
            <mxPoint x="620" y="380" as="sourcePoint" />
            <mxPoint x="670" y="380" as="targetPoint" />
          </mxGeometry>
        </mxCell>
        <mxCell id="BQdF3oTu2OWkkyK6r23T-44" value="" style="endArrow=classic;html=1;rounded=0;" edge="1" parent="1">
          <mxGeometry width="50" height="50" relative="1" as="geometry">
            <mxPoint x="620" y="420" as="sourcePoint" />
            <mxPoint x="670" y="420" as="targetPoint" />
          </mxGeometry>
        </mxCell>
        <mxCell id="BQdF3oTu2OWkkyK6r23T-45" value="&lt;font style=&quot;font-size: 18px;&quot;&gt;Responses&lt;/font&gt;" style="text;strokeColor=none;fillColor=none;align=left;verticalAlign=middle;spacingLeft=4;spacingRight=4;overflow=hidden;points=[[0,0.5],[1,0.5]];portConstraint=eastwest;rotatable=0;whiteSpace=wrap;html=1;" vertex="1" parent="1">
          <mxGeometry x="680" y="350" width="120" height="30" as="geometry" />
        </mxCell>
      </root>
    </mxGraphModel>
  </diagram>
</mxfile>
